<svg xmlns="http://www.w3.org/2000/svg" width="25.351" height="16.901" viewBox="0 0 25.351 16.901">
  <path id="folder-open"
   d="M25.205,74.039,22.018,79.5a2.817,2.817,0,0,1-2.433,1.4H1.982a1.056,1.056,0,0,1-.912-1.589l3.188-5.464a2.817,2.817,0,0,1,2.433-1.4h17.6A1.056,1.056,0,0,1,25.205,74.039Zm-18.516-3H21.126V68.929a2.113,2.113,0,0,0-2.113-2.113H11.971L9.154,64H2.113A2.113,2.113,0,0,0,0,66.113V78.35l3.04-5.212A4.24,4.24,0,0,1,6.69,71.042Z" 
   transform="translate(0 -64)" 
   fill="currentColor"
  />
</svg>
