<svg xmlns="http://www.w3.org/2000/svg" width="62" height="62" viewBox="0 0 62 62">
  <g id="Сгруппировать_987" data-name="Сгруппировать 987" transform="translate(-1832.569 -2144.569)">
    <circle id="Эллипс_169" data-name="Эллипс 169" cx="31" cy="31" r="31" transform="translate(1832.569 2144.569)" fill="#879dc4"/>
    <path id="folder-open" d="M25.205,74.039,22.018,79.5a2.817,2.817,0,0,1-2.433,1.4H1.982a1.056,1.056,0,0,1-.912-1.589l3.188-5.464a2.817,2.817,0,0,1,2.433-1.4h17.6A1.056,1.056,0,0,1,25.205,74.039Zm-18.516-3H21.126V68.929a2.113,2.113,0,0,0-2.113-2.113H11.971L9.154,64H2.113A2.113,2.113,0,0,0,0,66.113V78.35l3.04-5.212A4.24,4.24,0,0,1,6.69,71.042Z" transform="translate(1852.116 2103.118)" fill="#e5eeff"/>
  </g>
</svg>
