<svg xmlns="http://www.w3.org/2000/svg" width="19.598" height="19.598" viewBox="0 0 19.598 19.598">
  <path id="arrows-out-simple" d="M59.6,40.891v5.344a.891.891,0,1,1-1.782,0V43.042L53.1,47.757a.891.891,0,1,1-1.26-1.26l4.715-4.715H53.362a.891.891,0,1,1,0-1.782h5.355c.026,0,.052,0,.078,0l.042.006.044.007.046.011.038.01.044.015.038.014.039.018.04.019.036.021.039.023.038.028.032.024c.021.017.041.035.06.054l.006.005.006.007c.018.019.036.038.052.058s.017.023.026.035.018.023.026.035.017.027.025.041.014.022.02.033.014.028.021.043.012.024.017.036.01.028.015.042.01.027.014.04.008.029.011.043.007.027.01.041.005.034.008.051,0,.023.005.035A.885.885,0,0,1,59.6,40.891ZM46.5,51.842l-4.715,4.715V53.362a.891.891,0,1,0-1.782,0v5.344a.888.888,0,0,0,0,.089c0,.012,0,.024.005.035s0,.034.008.051.007.028.01.041.007.029.011.043.009.027.014.04.01.028.015.042.011.024.017.036.013.029.021.043.013.022.02.033.016.028.025.041.017.024.026.035.017.023.026.035.034.039.052.058l.006.007.006.005c.019.019.039.037.06.054l.032.024.038.028.039.024.036.021.041.02.038.018.04.015.042.015.04.01.044.011.047.007.039.006c.029,0,.059,0,.088,0h5.345a.891.891,0,1,0,0-1.782H43.042L47.757,53.1a.891.891,0,1,0-1.26-1.26Z" transform="translate(-40 59.598) rotate(-90)"/>
</svg>
